HIERARCHY
ROOT hip
{
	OFFSET 0.000000 0.000000 0.000000
	CHANNELS 6 Xposition Yposition Zposition Xrotation Zrotation Yrotation 
	JOINT abdomen
	{
		OFFSET 0.000000 3.422050 0.000000
		CHANNELS 3 Xrotation Zrotation Yrotation 
		JOINT chest
		{
			OFFSET 0.000000 8.486693 -0.684411
			CHANNELS 3 Xrotation Zrotation Yrotation 
			JOINT neck
			{
				OFFSET 0.000000 10.266162 -0.273764
				CHANNELS 3 Xrotation Zrotation Yrotation 
				JOINT head
				{
					OFFSET 0.000000 3.148285 0.000000
					CHANNELS 3 Xrotation Zrotation Yrotation 
					End Site
					{
						OFFSET 0.000000 3.148289 0.000000
					}
				}
			}
			JOINT lCollar
			{
				OFFSET 3.422053 6.707223 -0.821293
				CHANNELS 3 Yrotation Zrotation Xrotation 
				JOINT lShldr
				{
					OFFSET 3.285171 0.000000 0.000000
					CHANNELS 3 Zrotation Yrotation Xrotation 
					JOINT lForeArm
					{
						OFFSET 10.129278 0.000000 0.000000
						CHANNELS 3 Yrotation Zrotation Xrotation 
						JOINT lHand
						{
							OFFSET 8.486692 0.000000 0.000000
							CHANNELS 3 Zrotation Yrotation Xrotation 
							End Site
							{
								OFFSET 4.106464 0.000000 0.000000
							}
						}
					}
				}
			}
			JOINT rCollar
			{
				OFFSET -3.558935 6.707223 -0.821293
				CHANNELS 3 Yrotation Zrotation Xrotation 
				JOINT rShldr
				{
					OFFSET -3.148289 0.000000 0.000000
					CHANNELS 3 Zrotation Yrotation Xrotation 
					JOINT rForeArm
					{
						OFFSET -10.266159 0.000000 0.000000
						CHANNELS 3 Yrotation Zrotation Xrotation 
						JOINT rHand
						{
							OFFSET -8.349810 0.000000 0.000000
							CHANNELS 3 Zrotation Yrotation Xrotation 
							End Site
							{
								OFFSET -4.106464 0.000000 0.000000
							}
						}
					}
				}
			}
		}
	}
	JOINT lThigh
	{
		OFFSET 5.338403 -1.642589 1.368821
		CHANNELS 3 Xrotation Zrotation Yrotation 
		JOINT lShin
		{
			OFFSET -2.053232 -20.121670 0.000000
			CHANNELS 3 Xrotation Zrotation Yrotation 
			JOINT lFoot
			{
				OFFSET 0.000000 -19.300381 -1.231939
				CHANNELS 3 Xrotation Yrotation Zrotation 
				End Site
				{
					OFFSET 0.000000 -2.463878 4.653993
				}
			}
		}
	}
	JOINT rThigh
	{
		OFFSET -5.338403 -1.642589 1.368821
		CHANNELS 3 Xrotation Zrotation Yrotation 
		JOINT rShin
		{
			OFFSET 2.053232 -20.121670 0.000000
			CHANNELS 3 Xrotation Zrotation Yrotation 
			JOINT rFoot
			{
				OFFSET 0.000000 -19.300381 -1.231939
				CHANNELS 3 Xrotation Yrotation Zrotation 
				End Site
				{
					OFFSET 0.000000 -2.463878 4.653993
				}
			}
		}
	}
}
MOTION
Frames:	20
Frame Time:	0.250000
0.000000 43.528519 0.000000 0.000000 0.000000 0.000000 0.000000 0.000000 0.000000 0.000000 0.000000 0.000000 0.000000 0.000000 0.000000 0.000000 0.000000 0.000000 0.000000 0.000000 0.000000 0.000000 0.000000 0.000000 0.000000 0.000000 0.000000 0.000000 0.000000 0.000000 0.000000 0.000000 0.000000 0.000000 0.000000 0.000000 0.000000 0.000000 0.000000 0.000000 0.000000 0.000000 0.000000 0.000000 0.000000 0.000000 0.000000 0.000000 0.000000 0.000000 0.000000 0.000000 0.000000 0.000000 0.000000 0.000000 0.000000 0.000000 0.000000 0.000000 
0.000000 46.000000 0.000000 0.000000 0.000000 1.000000 3.000000 0.000000 -2.000000 -12.000000 0.000000 0.000000 0.000000 0.000000 -2.000000 -14.000000 0.000000 1.000000 9.000000 3.000000 0.000000 -84.000000 -11.000000 -32.000000 -146.000000 5.000000 20.000000 20.000000 20.000000 30.000000 -2.000000 0.000000 0.000000 60.000000 40.000000 -29.000000 93.000000 -5.000000 -20.000000 25.000000 0.000000 -1.000000 1.000000 1.159630 -0.468043 17.562361 -2.343591 -1.284068 6.494697 8.000000 0.853471 -1.415801 -0.909399 0.855532 1.309728 1.404574 -0.821872 13.090005 0.584050 -0.616488 
0.000000 46.000000 0.000000 0.000000 0.000000 1.000000 3.000000 0.000000 -2.000000 -12.000000 0.000000 0.000000 0.000000 0.000000 -2.000000 -14.000000 0.000000 1.000000 9.000000 3.000000 0.000000 -84.000000 -11.000000 -32.000000 -146.000000 5.000000 20.000000 20.000000 20.000000 30.000000 -2.000000 0.000000 0.000000 60.000000 40.000000 -29.000000 93.000000 -5.000000 -20.000000 25.000000 0.000000 -1.000000 1.000000 1.159630 -0.468043 17.562361 -2.343591 -1.284068 6.494697 8.000000 0.853471 -1.415801 -0.909399 0.855532 1.309728 1.404574 -0.821872 13.090005 0.584050 -0.616488 
0.000000 46.000000 0.000000 0.000000 0.000000 1.000000 3.000000 0.000000 -2.000000 -12.000000 0.000000 0.000000 0.000000 0.000000 -2.000000 -14.000000 0.000000 1.000000 9.000000 3.000000 0.000000 -84.000000 -11.000000 -32.000000 -146.000000 5.000000 20.000000 20.000000 20.000000 30.000000 -2.000000 0.000000 0.000000 60.000000 40.000000 -29.000000 93.000000 -5.000000 -20.000000 25.000000 0.000000 -1.000000 1.000000 1.159630 -0.468043 17.562361 -2.343591 -1.284068 6.494697 8.000000 0.853471 -1.415801 -0.909399 0.855532 1.309728 1.404574 -0.821872 13.090005 0.584050 -0.616488 
0.000000 46.000000 0.000000 0.000000 0.000000 1.000000 3.000000 0.000000 -2.000000 -12.000000 0.000000 0.000000 0.000000 0.000000 -2.000000 -14.000000 0.000000 1.000000 9.000000 3.000000 0.000000 -84.000000 -11.000000 -32.000000 -146.000000 5.000000 20.000000 20.000000 20.000000 30.000000 -2.000000 0.000000 0.000000 60.000000 40.000000 -29.000000 93.000000 -5.000000 -20.000000 25.000000 0.000000 -1.000000 1.000000 1.159630 -0.468043 17.562361 -2.343591 -1.284068 6.494697 8.000000 0.853471 -1.415801 -0.909399 0.855532 1.309728 1.404574 -0.821872 13.090005 0.584050 -0.616488 
0.000000 46.000000 0.000000 0.000000 0.000000 1.000000 3.000000 0.000000 -2.000000 -12.000000 0.000000 0.000000 0.000000 0.000000 -2.000000 -14.000000 0.000000 1.000000 9.000000 3.000000 0.000000 -84.000000 -11.000000 -32.000000 -146.000000 5.000000 20.000000 20.000000 20.000000 30.000000 -2.000000 0.000000 0.000000 60.000000 40.000000 -29.000000 93.000000 -5.000000 -20.000000 25.000000 0.000000 -1.000000 1.000000 1.159630 -0.468043 17.562361 -2.343591 -1.284068 6.494697 8.000000 0.853471 -1.415801 -0.909399 0.855532 1.309728 1.404574 -0.821872 13.090005 0.584050 -0.616488 
0.000000 46.000000 0.000000 0.000000 0.000000 1.000000 3.000000 0.000000 -2.000000 -12.000000 0.000000 0.000000 0.000000 0.000000 -2.000000 -14.000000 0.000000 1.000000 9.000000 3.000000 0.000000 -84.000000 -11.000000 -32.000000 -146.000000 5.000000 20.000000 20.000000 20.000000 30.000000 -2.000000 0.000000 0.000000 60.000000 40.000000 -29.000000 93.000000 -5.000000 -20.000000 25.000000 0.000000 -1.000000 1.000000 1.159630 -0.468043 17.562361 -2.343591 -1.284068 6.494697 8.000000 0.853471 -1.415801 -0.909399 0.855532 1.309728 1.404574 -0.821872 13.090005 0.584050 -0.616488 
0.000000 46.000000 0.000000 0.000000 0.000000 1.000000 3.000000 0.000000 -2.000000 -12.000000 0.000000 0.000000 0.000000 0.000000 -2.000000 -14.000000 0.000000 1.000000 9.000000 3.000000 0.000000 -84.000000 -11.000000 -32.000000 -146.000000 5.000000 20.000000 20.000000 20.000000 30.000000 -2.000000 0.000000 0.000000 60.000000 40.000000 -29.000000 93.000000 -5.000000 -20.000000 25.000000 0.000000 -1.000000 1.000000 1.159630 -0.468043 17.562361 -2.343591 -1.284068 6.494697 8.000000 0.853471 -1.415801 -0.909399 0.855532 1.309728 1.404574 -0.821872 13.090005 0.584050 -0.616488 
0.000000 46.000000 0.000000 0.000000 0.000000 1.000000 3.000000 0.000000 -2.000000 -12.000000 0.000000 0.000000 0.000000 0.000000 -2.000000 -14.000000 0.000000 1.000000 9.000000 3.000000 0.000000 -84.000000 -11.000000 -32.000000 -146.000000 5.000000 20.000000 20.000000 20.000000 30.000000 -2.000000 0.000000 0.000000 60.000000 40.000000 -29.000000 93.000000 -5.000000 -20.000000 25.000000 0.000000 -1.000000 1.000000 1.159630 -0.468043 17.562361 -2.343591 -1.284068 6.494697 8.000000 0.853471 -1.415801 -0.909399 0.855532 1.309728 1.404574 -0.821872 13.090005 0.584050 -0.616488 
0.000000 46.000000 0.000000 0.000000 0.000000 1.000000 3.000000 0.000000 -2.000000 -12.000000 0.000000 0.000000 0.000000 0.000000 -2.000000 -14.000000 0.000000 1.000000 9.000000 3.000000 0.000000 -84.000000 -11.000000 -32.000000 -146.000000 5.000000 20.000000 20.000000 20.000000 30.000000 -2.000000 0.000000 0.000000 60.000000 40.000000 -29.000000 93.000000 -5.000000 -20.000000 25.000000 0.000000 -1.000000 1.000000 1.159630 -0.468043 17.562361 -2.343591 -1.284068 6.494697 8.000000 0.853471 -1.415801 -0.909399 0.855532 1.309728 1.404574 -0.821872 13.090005 0.584050 -0.616488 
-0.666667 46.000000 0.000000 0.000000 0.000000 1.000000 3.000000 0.000000 -2.000000 -12.000000 0.000000 0.000000 0.000000 0.000000 -2.000000 -14.000000 0.000000 1.000000 9.000000 3.000000 0.000000 -84.000000 -11.000000 -32.000000 -146.000000 5.000000 20.000000 20.000000 20.000000 30.000000 -2.000000 0.000000 0.000000 60.000000 40.000000 -29.000000 93.000000 -5.000000 -20.000000 25.000000 0.000000 -1.000000 1.000000 1.113245 -0.468043 16.258204 -2.343591 -1.284068 6.494697 8.000000 0.853471 -1.415801 -1.382106 0.855532 2.657339 1.404574 -0.821872 13.406405 0.584050 -0.616488 
-1.333333 46.000000 0.000000 0.000000 0.000000 1.000000 3.000000 0.000000 -2.000000 -12.000000 0.000000 0.000000 0.000000 0.000000 -2.000000 -14.000000 0.000000 1.000000 9.000000 3.000000 0.000000 -84.000000 -11.000000 -32.000000 -146.000000 5.000000 20.000000 20.000000 20.000000 30.000000 -2.000000 0.000000 0.000000 60.000000 40.000000 -29.000000 93.000000 -5.000000 -20.000000 25.000000 0.000000 -1.000000 1.000000 1.066860 -0.468043 14.954045 -2.343591 -1.284068 6.494697 8.000000 0.853471 -1.415801 -1.854812 0.855532 4.004950 1.404574 -0.821872 13.722805 0.584050 -0.616488 
-2.000000 46.000000 0.000000 0.000000 0.000000 1.000000 3.000000 0.000000 -2.000000 -12.000000 0.000000 0.000000 0.000000 0.000000 -2.000000 -14.000000 0.000000 1.000000 9.000000 3.000000 0.000000 -84.000000 -11.000000 -32.000000 -146.000000 5.000000 20.000000 20.000000 20.000000 30.000000 -2.000000 0.000000 0.000000 60.000000 40.000000 -29.000000 93.000000 -5.000000 -20.000000 25.000000 0.000000 -1.000000 1.000000 1.020474 -0.468043 13.649888 -2.343591 -1.284068 6.494697 8.000000 0.853471 -1.415801 -2.327519 0.855532 5.352561 1.404574 -0.821872 14.039204 0.584050 -0.616488 
-2.666667 46.000000 0.000000 0.000000 0.000000 1.000000 3.000000 0.000000 -2.000000 -12.000000 0.000000 0.000000 0.000000 0.000000 -2.000000 -14.000000 0.000000 1.000000 9.000000 3.000000 0.000000 -84.000000 -11.000000 -32.000000 -146.000000 5.000000 20.000000 20.000000 20.000000 30.000000 -2.000000 0.000000 0.000000 60.000000 40.000000 -29.000000 93.000000 -5.000000 -20.000000 25.000000 0.000000 -1.000000 1.000000 0.974089 -0.468043 12.345731 -2.343591 -1.284068 6.494697 8.000000 0.853471 -1.415801 -2.800226 0.855532 6.700172 1.404574 -0.821872 14.355604 0.584050 -0.616488 
-3.333333 46.000000 0.000000 0.000000 0.000000 1.000000 3.000000 0.000000 -2.000000 -12.000000 0.000000 0.000000 0.000000 0.000000 -2.000000 -14.000000 0.000000 1.000000 9.000000 3.000000 0.000000 -84.000000 -11.000000 -32.000000 -146.000000 5.000000 20.000000 20.000000 20.000000 30.000000 -2.000000 0.000000 0.000000 60.000000 40.000000 -29.000000 93.000000 -5.000000 -20.000000 25.000000 0.000000 -1.000000 1.000000 0.927704 -0.468043 11.041573 -2.343591 -1.284068 6.494697 8.000000 0.853471 -1.415801 -3.272933 0.855532 8.047782 1.404574 -0.821872 14.672004 0.584050 -0.616488 
-4.000000 46.000000 0.000000 0.000000 0.000000 1.000000 3.000000 0.000000 -2.000000 -12.000000 0.000000 0.000000 0.000000 0.000000 -2.000000 -14.000000 0.000000 1.000000 9.000000 3.000000 0.000000 -84.000000 -11.000000 -32.000000 -146.000000 5.000000 20.000000 20.000000 20.000000 30.000000 -2.000000 0.000000 0.000000 60.000000 40.000000 -29.000000 93.000000 -5.000000 -20.000000 25.000000 0.000000 -1.000000 1.000000 0.881319 -0.468043 9.737416 -2.343591 -1.284068 6.494697 8.000000 0.853471 -1.415801 -3.745639 0.855532 9.395393 1.404574 -0.821872 14.988404 0.584050 -0.616488 
-4.666667 46.000000 0.000000 0.000000 0.000000 1.000000 3.000000 0.000000 -2.000000 -12.000000 0.000000 0.000000 0.000000 0.000000 -2.000000 -14.000000 0.000000 1.000000 9.000000 3.000000 0.000000 -84.000000 -11.000000 -32.000000 -146.000000 5.000000 20.000000 20.000000 20.000000 30.000000 -2.000000 0.000000 0.000000 60.000000 40.000000 -29.000000 93.000000 -5.000000 -20.000000 25.000000 0.000000 -1.000000 1.000000 0.834934 -0.468043 8.433259 -2.343591 -1.284068 6.494697 8.000000 0.853471 -1.415801 -4.218346 0.855532 10.743004 1.404574 -0.821872 15.304804 0.584050 -0.616488 
-5.333333 46.000000 0.000000 0.000000 0.000000 1.000000 3.000000 0.000000 -2.000000 -12.000000 0.000000 0.000000 0.000000 0.000000 -2.000000 -14.000000 0.000000 1.000000 9.000000 3.000000 0.000000 -84.000000 -11.000000 -32.000000 -146.000000 5.000000 20.000000 20.000000 20.000000 30.000000 -2.000000 0.000000 0.000000 60.000000 40.000000 -29.000000 93.000000 -5.000000 -20.000000 25.000000 0.000000 -1.000000 1.000000 0.788548 -0.468043 7.129101 -2.343591 -1.284068 6.494697 8.000000 0.853471 -1.415801 -4.691053 0.855532 12.090615 1.404574 -0.821872 15.621203 0.584050 -0.616488 
-6.000000 46.000000 0.000000 0.000000 0.000000 1.000000 3.000000 0.000000 -2.000000 -12.000000 0.000000 0.000000 0.000000 0.000000 -2.000000 -14.000000 0.000000 1.000000 9.000000 3.000000 0.000000 -84.000000 -11.000000 -32.000000 -146.000000 5.000000 20.000000 20.000000 20.000000 30.000000 -2.000000 0.000000 0.000000 60.000000 40.000000 -29.000000 93.000000 -5.000000 -20.000000 25.000000 0.000000 -1.000000 1.000000 0.742163 -0.468043 5.824944 -2.343591 -1.284068 6.494697 8.000000 0.853471 -1.415801 -5.163760 0.855532 13.438226 1.404574 -0.821872 15.937603 0.584050 -0.616488 
-6.666667 46.000000 0.000000 0.000000 0.000000 1.000000 3.000000 0.000000 -2.000000 -12.000000 0.000000 0.000000 0.000000 0.000000 -2.000000 -14.000000 0.000000 1.000000 9.000000 3.000000 0.000000 -84.000000 -11.000000 -32.000000 -146.000000 5.000000 20.000000 20.000000 20.000000 30.000000 -2.000000 0.000000 0.000000 60.000000 40.000000 -29.000000 93.000000 -5.000000 -20.000000 25.000000 0.000000 -1.000000 1.000000 0.695778 -0.468043 4.520787 -2.343591 -1.284068 6.494697 8.000000 0.853471 -1.415801 -5.636466 0.855532 14.785837 1.404574 -0.821872 16.254004 0.584050 -0.616488 
